<?xml version="1.0" encoding="UTF-8" standalone="no"?>
<!-- Created with Inkscape (http://www.inkscape.org/) -->

<svg
   width="210mm"
   height="297mm"
   viewBox="0 0 210 297"
   version="1.1"
   id="svg1"
   xml:space="preserve"
   inkscape:version="1.4 (86a8ad7, 2024-10-11)"
   sodipodi:docname="iconos de comercio.svg"
   xmlns:inkscape="http://www.inkscape.org/namespaces/inkscape"
   xmlns:sodipodi="http://sodipodi.sourceforge.net/DTD/sodipodi-0.dtd"
   xmlns="http://www.w3.org/2000/svg"
   xmlns:svg="http://www.w3.org/2000/svg"><sodipodi:namedview
     id="namedview1"
     pagecolor="#ffffff"
     bordercolor="#000000"
     borderopacity="0.25"
     inkscape:showpageshadow="2"
     inkscape:pageopacity="0.0"
     inkscape:pagecheckerboard="0"
     inkscape:deskcolor="#d1d1d1"
     inkscape:document-units="mm"
     inkscape:zoom="0.72441741"
     inkscape:cx="445.87554"
     inkscape:cy="365.12099"
     inkscape:window-width="1366"
     inkscape:window-height="705"
     inkscape:window-x="-8"
     inkscape:window-y="-8"
     inkscape:window-maximized="1"
     inkscape:current-layer="layer1" /><defs
     id="defs1" /><g
     inkscape:label="Capa 1"
     inkscape:groupmode="layer"
     id="layer1"><path
       style="opacity:0.785219;fill:none;stroke:#000000;stroke-width:0.105833;stroke-linejoin:round;stroke-opacity:0.991398;paint-order:fill markers stroke"
       d="M 80.443233,54.05493 Z"
       id="path1" /><path
       style="opacity:1;fill:#000000;stroke:#000000;stroke-width:0.306;stroke-linejoin:round;stroke-dasharray:none;stroke-opacity:0.991398;paint-order:fill markers stroke"
       d="m 79.592772,62.360543 -0.972515,-0.520557 -0.803029,-0.560908 -1.428507,-1.016903 -1.12182,-1.121822 -1.452716,-2.195217 -0.564946,-1.896604 -0.09685,-2.146792 0.435816,-2.098371 1.00076,-2.049944 1.323586,-1.485001 1.694836,-1.081468 1.404295,-0.290542 2.48576,-0.03228 2.889295,0.710218 3.421957,1.533425 3.179836,1.953096 1.823966,1.291307 v 0 l 2.628239,-0.08217 3.766497,-0.136965 1.369638,0.547855 2.28273,2.374034 0.89026,1.164191 0.36523,0.913087 -0.0228,3.264297 -0.20544,6.209014 -0.86744,2.122935 -1.89466,2.122935 -2.899066,3.05885 -5.671423,6.269543 -3.873912,4.22902 -1.355871,1.259023 -0.936196,0.322826 -1.226738,-0.09685 -1.291304,-0.774782 -2.033805,-2.195216 -5.100653,-5.55261 -3.131413,-3.583371 -0.387389,-1.194456 v -1.581848 l 0.581085,-1.162172 2.679457,-2.937719 z"
       id="path2" /><path
       style="opacity:1;fill:#ffffff;stroke:#000000;stroke-width:0.306001;stroke-linejoin:round;stroke-dasharray:none;stroke-opacity:0.991398;paint-order:fill markers stroke"
       d="m 80.70652,61.466086 -1.113748,-0.62951 -1.783614,-1.089538 -1.291304,-1.008832 -1.129893,-1.420434 -0.847418,-1.485001 -0.25826,-1.210598 -0.04842,-1.888533 0.484238,-1.727117 0.50038,-1.291307 0.645652,-0.855488 1.259022,-1.129893 1.614131,-0.677934 2.85701,-0.04842 1.355871,0.322826 2.130652,0.613371 2.453479,1.24288 3.341248,2.11451 1.904675,1.468858 2.953858,2.614893 0.08071,0.25826 -0.25826,0.11299 -0.419674,0.403532 -0.387392,0.790924 -0.274402,1.549564 0.225978,0.952339 0.564946,1.033042 0.920054,0.839348 1.24288,0.387392 1.033045,-0.11299 1.065326,-0.581086 0.80707,-1.129892 0.35511,-0.968478 -0.0484,-1.226738 -0.37125,-1.275165 -0.694076,-0.790922 -0.98462,-0.629512 -1.662555,-0.06456 -2.469364,-2.323459 3.260289,-0.178443 1.517282,-0.03229 0.839354,0.451959 2.55032,2.679456 0.41968,0.839346 -0.0323,1.840111 -0.25826,4.906954 0.0969,2.485763 -0.83935,1.614131 -2.324348,2.421194 -12.364239,-13.494131 -0.09685,-0.25826 2.776305,-2.744023 1.226738,-0.484237 1.35668,-0.03612 -1.660681,-1.278327 -0.650576,0.148379 -1.030803,0.488135 -1.226738,1.24288 -2.550327,2.792444 z"
       id="path3" /><path
       style="opacity:0.785219;fill:none;stroke:#000000;stroke-width:0.306001;stroke-linejoin:round;stroke-dasharray:none;stroke-opacity:0.991398;paint-order:fill markers stroke"
       d="m 97.686369,58.971351 0.162645,-0.02283 0.165497,-0.102722 0.142669,-0.168352 0.07419,-0.599215 c 0,0 -0.0114,-0.861729 -0.02283,-0.878851 -0.0114,-0.01712 -0.0114,-0.01712 -0.0114,-0.01712 l -0.07419,-0.485079 -0.114135,-0.405186 0.525025,0.239686 0.376651,0.370943 0.296754,0.370944 0.15979,0.570682 v 0.490786 l -0.102722,0.456544 -0.41089,0.78754 -0.513615,0.502201 -0.730472,0.171204 -0.913088,-0.251101 -0.673404,-0.627747 -0.2511,-0.479375 -0.0799,-0.85602 0.228272,-0.570682 0.399478,-0.604922 0.2511,-0.273926 0.205444,0.228272 0.148378,0.296754 0.102722,0.365236 0.0114,0.730472 0.136964,0.456544 0.273926,0.2511 z"
       id="path4" /><path
       style="opacity:1;fill:#ffff00;stroke:#000000;stroke-width:0.306001;stroke-linejoin:round;stroke-dasharray:none;stroke-opacity:0.991398;paint-order:fill markers stroke"
       d="m 86.355977,56.962664 -2.61489,2.87315 -3.389675,3.696359 -3.018425,3.244402 -2.61489,3.002283 -0.290544,0.50038 -0.09685,0.790924 0.145272,0.887773 0.7425,0.903911 4.697121,5.100654 4.212879,4.567989 0.7425,0.790924 0.435816,0.25826 0.839348,0.04842 0.710216,-0.12913 0.661795,-0.726358 3.050706,-3.260545 1.618996,-1.716792 4.08608,-4.50838 2.568064,-2.750685 -0.34776,-0.402241 -1.565707,-1.678694 -1.662554,-1.840108 -3.873913,-4.212881 z"
       id="path5" /><path
       style="opacity:1;fill:#000000;stroke:#000000;stroke-width:0.306001;stroke-linejoin:round;stroke-dasharray:none;stroke-opacity:0.991398;paint-order:fill markers stroke"
       d="m 89.574133,66.153373 c 0.433719,-0.593508 0.433719,-0.593508 0.433719,-0.593508 l 0.479372,-0.31958 c 0,0 0.444812,-0.0617 0.420603,-0.03749 -0.02421,0.02421 -0.02421,0.02421 -0.02421,0.02421 l 0.217906,0.217905 0.09685,0.355111 0.0081,0.193693 -0.09685,0.250193 -0.718288,0.815134 0.75864,0.911984 0.338968,0.790924 0.08071,1.081469 -0.419674,0.887769 -0.468098,0.451959 -0.51652,-0.161414 -0.22598,-0.613371 0.387392,-0.564943 0.04842,-0.855491 -2.647175,-2.873153 -0.550714,-0.02989 -1.871834,2.122932 v 0.7533 l 2.419688,2.625135 0.433718,0.913091 0.04565,1.141362 -0.570682,1.050052 -1.73487,1.689216 -1.164191,0.410893 -1.050052,-0.365236 -0.867436,-0.913091 -0.286779,0.06104 -0.532665,0.677934 -0.564943,0.09685 c 0,0 -0.258263,-0.145272 -0.338969,-0.355111 -0.08071,-0.209835 -0.08071,-0.209835 -0.08071,-0.209835 l 0.01614,-0.322827 0.920054,-1.00076 -0.581086,-0.661794 -0.516522,-0.839348 -0.03228,-1.146032 0.193696,-0.887773 0.62951,-0.581085 0.532665,0.129129 0.193693,0.548805 -0.209836,0.37125 -0.225977,0.564946 -0.03228,0.61337 c 0,0 2.48576,2.598748 2.534184,2.695596 0.04842,0.09685 0.04842,0.09685 0.04842,0.09685 h 0.75864 l 1.710978,-1.936956 -0.03228,-0.758642 -1.727121,-2.066087 -0.855488,-1.016902 -0.274402,-0.903912 0.112988,-0.758642 c 0,0 0.338968,-0.903912 0.37125,-0.887773 0.03228,0.01614 0.03228,0.01614 0.03228,0.01614 l 1.888533,-2.033804 0.855487,-0.242121 0.920055,0.161415 z"
       id="path6" /><path
       style="opacity:1;fill:#000000;stroke:#000000;stroke-width:0.306001;stroke-linejoin:round;stroke-dasharray:none;stroke-opacity:0.991398;paint-order:fill markers stroke"
       d="m 177.81261,109.92228 6.39195,-2.38891 6.29511,-3.38968 2.38891,-1.58184 2.29207,1.45272 5.06837,2.84086 6.10141,2.51805 1.58185,0.5488 0.22598,0.64565 -0.0323,9.23283 -0.0323,3.84163 -0.32282,2.35663 -0.80707,3.1637 -1.25902,3.06684 -1.25902,2.06609 -2.38891,2.80859 -2.16294,1.77554 -2.97,1.77554 -3.97076,1.29131 -2.19522,-0.58109 -3.29282,-1.42043 -2.84087,-2.06609 -2.77631,-3.03457 c 0,0 -1.00076,-0.7425 -2.0338,-3.38967 -1.03304,-2.64717 -1.42044,-3.87391 -1.42044,-3.87391 l -0.51652,-3.64794 z"
       id="path7" /><path
       style="opacity:1;fill:#00ff00;stroke:#000000;stroke-width:0.306001;stroke-linejoin:round;stroke-dasharray:none;stroke-opacity:0.991398;paint-order:fill markers stroke"
       d="m 192.98543,104.14369 0.71022,0.51653 2.7785,1.66912 4.0176,2.03162 5.06765,2.14576 1.41529,0.47937 -0.0432,12.52717 -0.30668,2.2275 -0.77479,2.95386 -1.13526,2.74469 -1.64356,2.511 -1.87184,2.23707 -2.83058,2.23707 -3.19581,1.5066 -2.19142,0.59351 -2.84199,-0.78754 -2.49958,-1.23267 -2.73928,-2.13435 -2.30555,-2.64796 -2.00879,-3.35561 -1.23268,-3.74367 -0.36523,-2.71644 -0.11414,-3.60671 0.0913,-9.31352 0.56497,-0.12555 3.80231,-1.47092 2.61489,-1.14603 5.26207,-3.00229 z"
       id="path8" /><path
       style="opacity:1;fill:#000000;stroke:#000000;stroke-width:0.306001;stroke-linejoin:round;stroke-dasharray:none;stroke-opacity:0.991398;paint-order:fill markers stroke"
       d="m 193.05006,111.55678 h -1.66639 l -1.849,0.5022 -2.41969,1.41529 -1.64356,1.64356 -1.5066,2.6023 -0.7533,2.53383 -0.15979,2.71644 0.38806,2.44252 1.16419,2.62513 0.91309,1.34681 1.59791,1.5066 1.39246,0.89026 1.5066,0.68482 c 0,0 1.18702,0.31958 1.18702,0.34241 0,0.0228 0,0.0228 0,0.0228 l 1.64356,0.18262 1.96314,-0.2511 2.30556,-0.73047 1.98597,-1.36964 1.52942,-1.68921 1.20984,-2.10011 0.70765,-2.41969 0.2511,-3.26429 -0.45654,-2.21425 -0.98158,-2.37403 -1.7577,-2.2599 -2.05445,-1.57508 -2.76209,-1.14136 z"
       id="path9" /><path
       style="opacity:1;fill:#ffff00;stroke:#000000;stroke-width:0.306001;stroke-linejoin:round;stroke-dasharray:none;stroke-opacity:0.991398;paint-order:fill markers stroke"
       d="m 194.57949,112.74379 3.12733,1.55226 1.84901,1.68921 1.36964,2.44252 0.54785,2.28273 0.11414,2.19141 -0.43372,2.23707 -0.59351,1.7577 -2.16859,2.80775 -1.87183,1.18702 -2.14576,0.66199 -2.05446,0.11413 -1.96314,-0.41089 -1.89466,-0.93591 -2.12294,-1.96315 -1.2555,-2.23707 -0.68481,-2.48817 v -2.69361 l 0.3424,-1.57508 0.61634,-1.68922 1.20985,-1.68922 1.75769,-1.68921 1.68922,-0.89027 1.7577,-0.45654 1.2555,-0.11414 v 0"
       id="path10" /><path
       style="opacity:0.734411;fill:none;stroke:#000000;stroke-width:0.306001;stroke-linejoin:round;stroke-dasharray:none;stroke-opacity:0.991398;paint-order:fill markers stroke"
       d="m 194.03163,112.81228 0.56793,-0.0168 -1.5657,0.0323 z"
       id="path11" /><path
       style="opacity:0.98152425;fill:#000000;stroke:#000000;stroke-width:0.306001;stroke-linejoin:round;stroke-dasharray:none;stroke-opacity:0.991398;paint-order:fill markers stroke"
       d="m 192.31959,116.3505 -0.0228,-1.09571 0.22827,-0.52503 0.41089,-0.18261 0.36524,0.11413 0.27393,0.29676 v 1.41529 c 0,0 0.8446,-0.0685 0.93591,-0.0457 0.0913,0.0228 0.0913,0.0228 0.0913,0.0228 l 0.84461,0.31958 0.66199,0.63916 0.38806,0.93592 -0.0685,0.70764 c 0,0 -0.15979,0.34241 -0.29675,0.34241 -0.13697,0 -0.13697,0 -0.13697,0 h -0.38806 l -0.31958,-0.22827 -0.18262,-0.86744 -0.36523,-0.47937 -3.37844,-0.0228 -0.43371,0.22827 -0.22828,0.43372 c 0,0 -0.0913,2.30555 -0.0685,2.44251 0.0228,0.13697 0.23651,0.4557 0.23651,0.4557 l 0.24212,0.1937 3.50473,0.11532 0.89026,0.28534 0.55927,0.60492 0.38806,0.98157 -0.0114,2.52241 -0.0648,0.82918 c 0,0 -0.40353,0.66179 -0.4681,0.64565 -0.0646,-0.0161 -0.0646,-0.0161 -0.0646,-0.0161 l -0.66179,0.59723 -1.63028,0.11298 v 0.92006 l -0.0484,0.50038 -0.4681,0.38739 h -0.30668 l -0.43582,-0.45196 0.0484,-1.35587 -1.06533,-0.0161 -0.95234,-0.30668 -0.77478,-0.96848 -0.0926,-1.16294 0.23968,-0.45654 0.331,-0.12555 0.38806,0.19403 0.13697,0.45655 0.0685,0.36523 0.19403,0.331 0.29675,0.2511 3.64095,0.0685 0.45654,-0.4223 0.0114,-2.81917 -0.55927,-0.58209 -3.59529,-0.0343 -0.78754,-0.36523 -0.59351,-0.70765 -0.21686,-0.79895 0.0571,-3.25288 0.45654,-0.70765 0.71906,-0.55927 z"
       id="path12" /></g></svg>
